<?xml version="1.0" standalone="no"?><!DOCTYPE svg PUBLIC "-//W3C//DTD SVG 1.1//EN" "http://www.w3.org/Graphics/SVG/1.1/DTD/svg11.dtd"><svg t="1713335958492" class="icon" viewBox="0 0 1024 1024" version="1.1" xmlns="http://www.w3.org/2000/svg" p-id="4328" xmlns:xlink="http://www.w3.org/1999/xlink" width="24" height="24"><path d="M511.35488 589.9008c-21.84192 0-38.29248-18.17088-38.29248-40.59136l-1.08032-247.3472c0-22.43072 17.69984-40.6016 39.52128-40.6016 21.82144 0 39.53152 18.17088 39.53152 40.6016l-0.1792 247.3472C550.85056 571.72992 533.1712 589.9008 511.35488 589.9008zM553.82016 712.81664c0 24.08448-19.01568 43.61728-42.46528 43.61728-23.47008 0-42.48576-19.52768-42.48576-43.61728l0.17408-1.30048c0-24.1152 19.00544-43.62752 42.46528-43.62752 23.45984 0 42.48064 19.51232 42.48064 43.62752L553.82016 712.81664zM511.91296 955.62752c-93.26592 0-179.28192-30.70976-250.05568-82.11456-16.09728-5.15072-28.01664-20.00896-28.01664-38.21056l-0.36864-3.7888c0-22.44608 17.69472-40.59648 39.53152-40.59648 11.32544 0 21.37088 5.00736 28.58496 12.86144 58.88512 44.19072 131.21024 70.656 209.76128 70.656 196.78208 0 356.34176-163.88608 356.34176-366.0544 0-202.15808-159.55968-366.04928-356.34176-366.04928-196.80256 0-356.34688 163.8912-356.34688 366.04928 0 55.85408 12.53376 108.54912 34.29888 155.91424l2.90304 6.9632c6.58944 15.59552 8.74496 20.37248 15.32928 37.20704l0.36352 3.7376c0 22.4256-17.69472 40.6016-39.52128 40.6016-17.77152 0-30.14656-12.95872-37.20192-28.81536l0 0c-32.62464-65.40288-54.06208-136.96-54.06208-215.00928 0-246.67136 194.66752-446.6432 434.7904-446.6432 240.15872 0 434.816 199.97696 434.816 446.6432C946.72896 755.65056 752.0768 955.62752 511.91296 955.62752z" fill="#DC2C28" p-id="4329"></path></svg>