<?xml version="1.0" standalone="no"?><!DOCTYPE svg PUBLIC "-//W3C//DTD SVG 1.1//EN" "http://www.w3.org/Graphics/SVG/1.1/DTD/svg11.dtd"><svg t="1703940659969" class="icon" viewBox="0 0 1024 1024" version="1.1" xmlns="http://www.w3.org/2000/svg" p-id="1846" xmlns:xlink="http://www.w3.org/1999/xlink" width="200" height="200"><path d="M0 0h1024v1024H0z" fill="#8a8a8a" opacity=".01" p-id="1847"></path><path d="M478 758.304a42 42 0 1 0 84 0 42 42 0 0 0-84 0zM520 912C303.84 912 128 736.16 128 520S303.84 128 520 128 912 303.84 912 520 736.16 912 520 912z m0-727.744c-185.136 0-335.744 150.608-335.744 335.744 0 185.12 150.608 335.744 335.744 335.744 185.12 0 335.744-150.64 335.744-335.744 0-185.136-150.64-335.744-335.744-335.744z m0 477.232a28 28 0 0 1-28-28v-47.36c0-45.808 34.992-80.8 65.92-111.68 22.64-22.688 46.08-46.08 46.08-64.768 0-46.672-37.696-84.64-84-84.64-47.088 0-84 36.336-84 82.736a28 28 0 0 1-56 0c0-76.496 62.8-138.736 140-138.736s140 63.072 140 140.64c0 41.92-31.776 73.664-62.496 104.384-24.368 24.304-49.504 49.44-49.504 72.048v47.344c0 15.456-12.544 28.032-28 28.032z" fill="#8a8a8a" p-id="1848"></path></svg>